<svg xmlns="http://www.w3.org/2000/svg" xmlns:xlink="http://www.w3.org/1999/xlink" version="1.1" width="256" height="256" viewBox="0 0 256 256" xml:space="preserve">

<defs>
</defs>
<g style="stroke: none; stroke-width: 0; stroke-dasharray: none; stroke-linecap: butt; stroke-linejoin: miter; stroke-miterlimit: 10; fill: none; fill-rule: nonzero; opacity: 1;" transform="translate(1.4065934065934016 1.4065934065934016) scale(2.81 2.81)" >
	<circle cx="45" cy="45" r="45" style="stroke: none; stroke-width: 1; stroke-dasharray: none; stroke-linecap: butt; stroke-linejoin: miter; stroke-miterlimit: 10; fill: rgb(0,0,102); fill-rule: nonzero; opacity: 1;" transform="  matrix(1 0 0 1 0 0) "/>
	<path d="M 25.304 23.603 V 13.115 h -7.928 v 10.488 L 9.227 17.71 c -1.261 1.65 -2.407 3.391 -3.433 5.209 l 2.3 1.663 H 4.903 c -1.824 3.575 -3.193 7.42 -4.01 11.467 h 7.201 l -7.969 5.764 C 0.051 42.867 0 43.927 0 45 c 0 0.845 0.028 1.684 0.074 2.517 h 2.8 l 14.502 -10.488 v 10.488 h 7.928 V 37.029 l 14.502 10.488 h 5.318 v -3.846 L 34.586 36.05 h 10.538 V 24.583 H 34.587 l 10.538 -7.621 v -3.846 h -5.318 L 25.304 23.603 z" style="stroke: none; stroke-width: 1; stroke-dasharray: none; stroke-linecap: butt; stroke-linejoin: miter; stroke-miterlimit: 10; fill: rgb(243,244,245); fill-rule: nonzero; opacity: 1;" transform=" matrix(1 0 0 1 0 0) " stroke-linecap="round" />
	<path d="M 38.805 67.129 l -6.007 0.522 l 0.827 5.973 l -4.154 -4.371 l -4.154 4.371 l 0.828 -5.973 l -6.007 -0.522 l 5.185 -3.077 l -3.336 -5.022 l 5.638 2.135 l 1.847 -5.74 l 1.847 5.74 l 5.638 -2.135 l -3.336 5.022 M 64.506 72.634 l -1.45 -2.182 l 2.451 0.928 l 0.801 -2.494 l 0.802 2.494 l 2.45 -0.928 l -1.45 2.182 l 2.253 1.337 l -2.61 0.227 l 0.36 2.594 l -1.805 -1.898 l -1.805 1.898 l 0.36 -2.594 l -2.61 -0.227 M 64.506 33.816 l -1.45 -2.182 l 2.451 0.928 l 0.801 -2.494 l 0.802 2.493 l 2.45 -0.927 l -1.45 2.182 l 2.253 1.337 l -2.61 0.227 l 0.36 2.594 l -1.805 -1.898 l -1.805 1.898 l 0.36 -2.594 l -2.61 -0.227 M 49.949 49.586 l -1.45 -2.181 l 2.451 0.928 l 0.802 -2.494 l 0.802 2.494 l 2.451 -0.928 l -1.45 2.181 l 2.253 1.338 l -2.61 0.227 l 0.36 2.594 l -1.805 -1.898 l -1.805 1.898 l 0.36 -2.594 l -2.61 -0.227 M 77.449 45.704 l -1.453 -2.182 l 2.452 0.928 l 0.796 -2.494 l 0.806 2.494 l 2.446 -0.928 l -1.446 2.182 l 2.252 1.337 l -2.61 0.227 l 0.359 2.594 l -1.805 -1.898 l -1.805 1.898 l 0.359 -2.594 l -2.606 -0.227 M 72.131 57.141 l -1.427 0.884 l 0.401 -1.629 l -1.282 -1.082 l 1.674 -0.123 l 0.634 -1.554 l 0.634 1.554 l 1.674 0.123 l -1.282 1.082 l 0.401 1.629" style="stroke: none; stroke-width: 1; stroke-dasharray: none; stroke-linecap: butt; stroke-linejoin: miter; stroke-miterlimit: 10; fill: rgb(243,244,245); fill-rule: nonzero; opacity: 1;" transform=" matrix(1 0 0 1 0 0) " stroke-linecap="round" />
	<path d="M 23.719 13.115 h -4.757 v 13.761 H 3.811 c -0.973 2.208 -1.784 4.503 -2.395 6.88 h 17.546 v 13.761 h 4.757 V 33.756 h 21.406 v -6.88 H 23.719 V 13.115 z" style="stroke: none; stroke-width: 1; stroke-dasharray: none; stroke-linecap: butt; stroke-linejoin: miter; stroke-miterlimit: 10; fill: rgb(204,0,0); fill-rule: nonzero; opacity: 1;" transform=" matrix(1 0 0 1 0 0) " stroke-linecap="round" />
	<path d="M 13.412 36.05 L 0.019 45.736 c 0.01 0.596 0.023 1.191 0.055 1.781 h 1.028 L 16.958 36.05 H 13.412 z" style="stroke: none; stroke-width: 1; stroke-dasharray: none; stroke-linecap: butt; stroke-linejoin: miter; stroke-miterlimit: 10; fill: rgb(204,0,0); fill-rule: nonzero; opacity: 1;" transform=" matrix(1 0 0 1 0 0) " stroke-linecap="round" />
	<polygon points="29.27,36.05 45.13,47.52 45.13,47.52 45.13,44.95 32.81,36.05 " style="stroke: none; stroke-width: 1; stroke-dasharray: none; stroke-linecap: butt; stroke-linejoin: miter; stroke-miterlimit: 10; fill: rgb(204,0,0); fill-rule: nonzero; opacity: 1;" transform="  matrix(1 0 0 1 0 0) "/>
	<polygon points="45.13,13.12 41.58,13.12 25.72,24.58 29.27,24.58 " style="stroke: none; stroke-width: 1; stroke-dasharray: none; stroke-linecap: butt; stroke-linejoin: miter; stroke-miterlimit: 10; fill: rgb(204,0,0); fill-rule: nonzero; opacity: 1;" transform="  matrix(1 0 0 1 0 0) "/>
	<path d="M 7.422 20.25 c -0.382 0.579 -0.752 1.166 -1.107 1.763 l 3.552 2.569 h 3.545 L 7.422 20.25 z" style="stroke: none; stroke-width: 1; stroke-dasharray: none; stroke-linecap: butt; stroke-linejoin: miter; stroke-miterlimit: 10; fill: rgb(204,0,0); fill-rule: nonzero; opacity: 1;" transform=" matrix(1 0 0 1 0 0) " stroke-linecap="round" />
</g>
</svg>