<svg xmlns="http://www.w3.org/2000/svg" width="800" height="800" fill="none" viewBox="0 0 800 800">
  <path fill="#C2B8CE" d="m148.298 363.968 21.362-26.065c3.647 3.279 7.116 5.955 10.409 8.026 3.352 2.072 6.691 3.596 10.018 4.575 3.398.92 6.942 1.38 10.633 1.38 3.633 0 6.816-.402 9.549-1.208 2.744-.863 4.94-2.071 6.586-3.625 1.716-1.611 2.785-3.51 3.205-5.696.532-2.762-.01-5.121-1.626-7.077-1.616-1.957-3.944-3.712-6.985-5.265-2.983-1.554-6.287-3.107-9.914-4.661a214.198 214.198 0 0 1-11.858-5.523c-3.996-2.072-7.557-4.575-10.684-7.509-3.127-2.935-5.429-6.502-6.906-10.702-1.466-4.258-1.612-9.437-.439-15.536 1.55-8.055 4.924-14.931 10.121-20.627 5.267-5.754 11.763-10.127 19.487-13.119 7.794-3.05 16.232-4.575 25.314-4.575 6.621 0 13.457.864 20.507 2.59 7.051 1.726 14.002 4.43 20.852 8.113l-18.816 27.446c-3.731-2.532-7.973-4.546-12.724-6.042-4.682-1.554-9.103-2.33-13.263-2.33-2.871 0-5.462.374-7.774 1.122-2.253.748-4.104 1.841-5.553 3.279-1.438 1.381-2.339 3.021-2.704 4.92-.487 2.532.077 4.776 1.693 6.732 1.627 1.899 3.926 3.654 6.897 5.265a192.143 192.143 0 0 0 9.776 4.919 183.77 183.77 0 0 1 11.774 5.956c4.033 2.186 7.607 4.775 10.723 7.767 3.174 2.992 5.5 6.588 6.977 10.789 1.488 4.143 1.673 9.12.555 14.931-1.494 7.768-4.98 14.615-10.456 20.541-5.406 5.869-12.292 10.444-20.657 13.723-8.307 3.28-17.558 4.92-27.754 4.92-9.492 0-18.345-1.496-26.558-4.488-8.213-2.992-15.469-7.308-21.767-12.946Zm222.158 14.845h-40.957l-32.683-76.814-14.778 76.814h-34.805l24.907-129.462h40.957l32.633 77.073 14.828-77.073h34.805l-24.907 129.462Zm31.743 0h-36.475l76.411-129.462h36.474l26.51 129.462h-36.475l-4.092-23.045h-49.395l-12.958 23.045Zm29.761-52.821h27.334l-6.604-36.94-20.73 36.94Zm68.426 52.821 24.907-129.462h48.077c11.308 0 20.734 1.87 28.276 5.61 7.612 3.682 12.985 8.947 16.121 15.794 3.206 6.79 3.906 14.874 2.102 24.253-1.804 9.378-5.627 17.52-11.467 24.425-5.77 6.847-13.117 12.14-22.039 15.88-8.923 3.74-18.98 5.61-30.171 5.61h-13.711l-7.29 37.89h-34.805Zm47.823-67.666h9.844c7.5 0 13.479-1.381 17.936-4.143 4.515-2.761 7.277-6.76 8.284-11.996.985-5.121-.254-9.034-3.718-11.738-3.395-2.762-8.842-4.143-16.342-4.143h-9.843l-6.161 32.02Z"/>
  <path fill="#8336E6" d="m173.095 371.968 21.363-26.065c3.646 3.279 7.116 5.955 10.408 8.026 3.352 2.072 6.691 3.596 10.019 4.575 3.397.92 6.941 1.38 10.633 1.38 3.632 0 6.815-.402 9.548-1.208 2.745-.863 4.94-2.071 6.587-3.625 1.716-1.611 2.784-3.51 3.205-5.696.531-2.762-.011-5.121-1.627-7.077-1.616-1.957-3.944-3.712-6.985-5.265-2.982-1.554-6.287-3.107-9.914-4.661a213.836 213.836 0 0 1-11.857-5.523c-3.996-2.072-7.558-4.575-10.684-7.509-3.127-2.935-5.429-6.502-6.906-10.702-1.466-4.258-1.613-9.437-.439-15.536 1.55-8.055 4.923-14.931 10.121-20.627 5.267-5.754 11.762-10.127 19.486-13.119 7.794-3.05 16.232-4.575 25.314-4.575 6.621 0 13.457.864 20.508 2.59 7.05 1.726 14.001 4.43 20.851 8.113l-18.815 27.446c-3.732-2.532-7.974-4.546-12.725-6.042-4.681-1.554-9.102-2.33-13.262-2.33-2.871 0-5.463.374-7.775 1.122-2.253.748-4.104 1.841-5.553 3.279-1.437 1.381-2.339 3.021-2.704 4.92-.487 2.532.077 4.776 1.693 6.732 1.627 1.899 3.926 3.654 6.897 5.265a192.195 192.195 0 0 0 9.777 4.919c3.875 1.784 7.8 3.769 11.774 5.956 4.032 2.186 7.606 4.775 10.722 7.767 3.175 2.992 5.5 6.588 6.977 10.789 1.488 4.143 1.674 9.12.555 14.931-1.494 7.768-4.979 14.615-10.455 20.541-5.407 5.869-12.293 10.444-20.658 13.723-8.307 3.28-17.558 4.92-27.753 4.92-9.492 0-18.345-1.496-26.559-4.488-8.213-2.992-15.469-7.308-21.767-12.946Zm222.158 14.845h-40.957l-32.682-76.814-14.779 76.814h-34.804l24.907-129.462h40.957l32.633 77.073 14.828-77.073h34.804l-24.907 129.462Zm31.743 0h-36.475l76.411-129.462h36.475l26.509 129.462h-36.475l-4.092-23.045h-49.394l-12.959 23.045Zm29.762-52.821h27.334l-6.605-36.94-20.729 36.94Zm68.426 52.821 24.907-129.462h48.076c11.309 0 20.734 1.87 28.276 5.61 7.612 3.682 12.986 8.947 16.122 15.794 3.205 6.79 3.906 14.874 2.101 24.253-1.804 9.378-5.626 17.52-11.466 24.425-5.771 6.847-13.117 12.14-22.04 15.88-8.923 3.74-18.98 5.61-30.171 5.61h-13.711l-7.29 37.89h-34.804Zm47.823-67.666h9.843c7.5 0 13.479-1.381 17.936-4.143 4.516-2.761 7.277-6.76 8.285-11.996.985-5.121-.255-9.034-3.719-11.738-3.394-2.762-8.841-4.143-16.341-4.143h-9.844l-6.16 32.02Zm61.019 69.392c-4.219 0-7.374-1.266-9.465-3.798s-2.738-5.869-1.941-10.012c.797-4.142 2.728-7.48 5.793-10.011 3.066-2.532 6.708-3.798 10.926-3.798 4.219 0 7.374 1.266 9.465 3.798 2.091 2.531 2.738 5.869 1.941 10.011-.797 4.143-2.728 7.48-5.793 10.012s-6.707 3.798-10.926 3.798ZM163.109 550.081l23.844-129.662h48.076c11.309 0 20.749 1.873 28.322 5.619 7.642 3.688 13.059 8.961 16.251 15.819 3.262 6.8 4.029 14.896 2.301 24.29-1.727 9.393-5.483 17.547-11.266 24.462-5.714 6.858-13.017 12.16-21.909 15.906-8.892 3.745-18.934 5.618-30.125 5.618h-13.711l-6.979 37.948h-34.804Zm47.267-67.77h9.844c7.5 0 13.467-1.383 17.901-4.149 4.493-2.766 7.222-6.771 8.187-12.015.943-5.129-.329-9.048-3.815-11.756-3.417-2.767-8.876-4.15-16.376-4.15h-9.844l-5.897 32.07Zm169.752 67.77h-38.496l-17.252-42.875h-15.645l-7.884 42.875h-34.805l23.844-129.662h53.086c11.426 0 20.84 1.7 28.242 5.1 7.402 3.4 12.614 8.356 15.635 14.868 3.091 6.454 3.793 14.263 2.108 23.426-1.579 8.586-4.815 15.991-9.71 22.215-4.894 6.224-11.215 11.122-18.962 14.695l19.839 49.358Zm-66.544-69.239h15.556c6.973 0 12.45-1.268 16.432-3.804 4.051-2.593 6.543-6.425 7.476-11.496.932-5.072-.155-8.875-3.263-11.411-3.039-2.593-8.045-3.89-15.017-3.89h-15.557l-5.627 30.601Zm125.06 71.832c-10.079 0-19.088-1.671-27.028-5.013-7.871-3.4-14.414-8.126-19.629-14.177-5.146-6.108-8.695-13.254-10.648-21.437-1.952-8.183-2.038-17.115-.257-26.797 1.78-9.681 5.151-18.614 10.113-26.797a83.156 83.156 0 0 1 18.516-21.351c7.452-6.108 15.733-10.834 24.843-14.176 9.18-3.4 18.839-5.1 28.975-5.1 10.079 0 19.053 1.7 26.924 5.1 7.881 3.342 14.366 8.068 19.453 14.176 5.157 6.051 8.712 13.168 10.664 21.351s2.038 17.116.258 26.797c-1.781 9.682-5.152 18.614-10.114 26.797a84.345 84.345 0 0 1-18.532 21.437c-7.323 6.051-15.546 10.777-24.667 14.177-9.111 3.342-18.735 5.013-28.871 5.013Zm5.484-29.822c4.863 0 9.55-.951 14.059-2.853 4.51-1.901 8.601-4.552 12.273-7.952 3.742-3.458 6.881-7.463 9.417-12.015 2.595-4.553 4.38-9.48 5.355-14.782.975-5.302 1.002-10.229.082-14.781-.863-4.553-2.534-8.529-5.014-11.929-2.411-3.458-5.522-6.138-9.332-8.039-3.81-1.902-8.147-2.853-13.011-2.853-4.863 0-9.579.951-14.147 2.853-4.51 1.901-8.636 4.581-12.377 8.039-3.731 3.4-6.894 7.376-9.489 11.929-2.536 4.552-4.292 9.479-5.267 14.781-.975 5.302-1.031 10.229-.169 14.782.921 4.552 2.616 8.557 5.085 12.015 2.48 3.4 5.626 6.051 9.436 7.952 3.869 1.902 8.235 2.853 13.099 2.853Z"/>
</svg>
