<svg xmlns="http://www.w3.org/2000/svg" xmlns:xlink="http://www.w3.org/1999/xlink" width="392" zoomAndPan="magnify" viewBox="0 0 294 179.249993" height="239" preserveAspectRatio="xMidYMid meet" version="1.0"><defs><clipPath id="831eb27b97"><path d="M 0.613281 0 L 293.386719 0 L 293.386719 178.503906 L 0.613281 178.503906 Z M 0.613281 0 " clip-rule="nonzero"/></clipPath><clipPath id="88cc498a7f"><path d="M 9 5 L 293 5 L 293 178.503906 L 9 178.503906 Z M 9 5 " clip-rule="nonzero"/></clipPath></defs><g clip-path="url(#831eb27b97)"></g><path fill="#c2b8ce" d="M 1.207031 68.671875 L 13.59375 53.558594 C 15.707031 55.460938 17.71875 57.011719 19.628906 58.210938 C 21.570312 59.414062 23.507812 60.296875 25.433594 60.863281 C 27.40625 61.398438 29.460938 61.664062 31.601562 61.664062 C 33.707031 61.664062 35.550781 61.429688 37.136719 60.964844 C 38.726562 60.464844 40 59.761719 40.953125 58.863281 C 41.949219 57.929688 42.570312 56.828125 42.8125 55.558594 C 43.121094 53.957031 42.808594 52.589844 41.871094 51.457031 C 40.933594 50.324219 39.582031 49.304688 37.820312 48.40625 C 36.089844 47.503906 34.175781 46.601562 32.074219 45.703125 C 29.75 44.703125 27.457031 43.636719 25.199219 42.5 C 22.878906 41.300781 20.816406 39.847656 19.003906 38.148438 C 17.191406 36.445312 15.855469 34.378906 15 31.941406 C 14.148438 29.472656 14.066406 26.472656 14.746094 22.933594 C 15.644531 18.265625 17.601562 14.277344 20.613281 10.976562 C 23.667969 7.640625 27.433594 5.105469 31.910156 3.371094 C 36.429688 1.601562 41.320312 0.71875 46.585938 0.71875 C 50.425781 0.71875 54.386719 1.21875 58.476562 2.21875 C 62.5625 3.21875 66.59375 4.789062 70.566406 6.921875 L 59.65625 22.835938 C 57.492188 21.367188 55.035156 20.199219 52.28125 19.332031 C 49.566406 18.429688 47 17.980469 44.589844 17.980469 C 42.925781 17.980469 41.421875 18.199219 40.082031 18.632812 C 38.777344 19.066406 37.703125 19.699219 36.863281 20.53125 C 36.03125 21.332031 35.507812 22.285156 35.296875 23.386719 C 35.011719 24.851562 35.339844 26.15625 36.277344 27.289062 C 37.21875 28.390625 38.554688 29.40625 40.277344 30.339844 C 42.136719 31.34375 44.027344 32.296875 45.945312 33.191406 C 48.261719 34.261719 50.535156 35.414062 52.769531 36.644531 C 55.109375 37.914062 57.179688 39.414062 58.988281 41.148438 C 60.828125 42.882812 62.175781 44.96875 63.03125 47.402344 C 63.894531 49.804688 64 52.691406 63.351562 56.058594 C 62.488281 60.5625 60.464844 64.535156 57.292969 67.96875 C 54.15625 71.371094 50.164062 74.023438 45.316406 75.925781 C 40.5 77.828125 35.136719 78.777344 29.222656 78.777344 C 23.722656 78.777344 18.589844 77.910156 13.828125 76.175781 C 9.066406 74.441406 4.859375 71.9375 1.207031 68.671875 Z M 130.007812 77.277344 L 106.261719 77.277344 L 87.3125 32.742188 L 78.746094 77.277344 L 58.566406 77.277344 L 73.007812 2.21875 L 96.75 2.21875 L 115.671875 46.902344 L 124.269531 2.21875 L 144.445312 2.21875 Z M 148.410156 77.277344 L 127.261719 77.277344 L 171.5625 2.21875 L 192.710938 2.21875 L 208.078125 77.277344 L 186.933594 77.277344 L 184.558594 63.914062 L 155.921875 63.914062 Z M 165.664062 46.652344 L 181.511719 46.652344 L 177.683594 25.238281 Z M 205.335938 77.277344 L 219.773438 2.21875 L 247.648438 2.21875 C 254.203125 2.21875 259.667969 3.304688 264.042969 5.472656 C 268.453125 7.605469 271.570312 10.660156 273.386719 14.628906 C 275.246094 18.566406 275.652344 23.253906 274.605469 28.691406 C 273.558594 34.125 271.34375 38.847656 267.957031 42.851562 C 264.613281 46.820312 260.355469 49.886719 255.179688 52.058594 C 250.007812 54.226562 244.175781 55.308594 237.6875 55.308594 L 229.738281 55.308594 L 225.511719 77.277344 Z M 233.0625 38.046875 L 238.769531 38.046875 C 243.117188 38.046875 246.582031 37.246094 249.167969 35.644531 C 251.785156 34.042969 253.386719 31.726562 253.96875 28.691406 C 254.539062 25.71875 253.820312 23.453125 251.8125 21.882812 C 249.84375 20.28125 246.6875 19.484375 242.339844 19.484375 L 236.632812 19.484375 Z M 233.0625 38.046875 " fill-opacity="1" fill-rule="nonzero"/><g clip-path="url(#88cc498a7f)"><path fill="#8336e6" d="M 15.582031 73.308594 L 27.96875 58.195312 C 30.082031 60.097656 32.09375 61.648438 34.003906 62.851562 C 35.945312 64.050781 37.882812 64.933594 39.8125 65.503906 C 41.78125 66.035156 43.835938 66.300781 45.976562 66.300781 C 48.082031 66.300781 49.929688 66.070312 51.511719 65.601562 C 53.105469 65.101562 54.375 64.402344 55.332031 63.5 C 56.324219 62.566406 56.945312 61.464844 57.1875 60.199219 C 57.496094 58.597656 57.183594 57.230469 56.246094 56.09375 C 55.308594 54.960938 53.960938 53.941406 52.195312 53.042969 C 50.46875 52.140625 48.550781 51.242188 46.449219 50.339844 C 44.125 49.34375 41.832031 48.277344 39.574219 47.136719 C 37.257812 45.9375 35.191406 44.484375 33.378906 42.785156 C 31.566406 41.082031 30.234375 39.015625 29.375 36.582031 C 28.527344 34.113281 28.441406 31.109375 29.121094 27.574219 C 30.019531 22.902344 31.976562 18.917969 34.988281 15.613281 C 38.042969 12.277344 41.808594 9.742188 46.285156 8.007812 C 50.804688 6.238281 55.699219 5.355469 60.964844 5.355469 C 64.800781 5.355469 68.765625 5.855469 72.851562 6.859375 C 76.941406 7.859375 80.96875 9.425781 84.941406 11.5625 L 74.035156 27.472656 C 71.871094 26.003906 69.410156 24.835938 66.65625 23.96875 C 63.941406 23.070312 61.378906 22.621094 58.96875 22.621094 C 57.300781 22.621094 55.800781 22.835938 54.460938 23.269531 C 53.152344 23.703125 52.078125 24.335938 51.238281 25.171875 C 50.40625 25.972656 49.882812 26.921875 49.671875 28.023438 C 49.390625 29.492188 49.71875 30.792969 50.652344 31.925781 C 51.597656 33.027344 52.929688 34.046875 54.652344 34.980469 C 56.515625 35.984375 58.402344 36.933594 60.320312 37.832031 C 62.566406 38.863281 64.84375 40.015625 67.148438 41.285156 C 69.484375 42.550781 71.554688 44.050781 73.363281 45.785156 C 75.203125 47.523438 76.550781 49.605469 77.40625 52.042969 C 78.269531 54.445312 78.378906 57.328125 77.730469 60.699219 C 76.863281 65.203125 74.84375 69.171875 71.667969 72.605469 C 68.535156 76.011719 64.542969 78.664062 59.691406 80.5625 C 54.875 82.464844 49.511719 83.414062 43.601562 83.414062 C 38.097656 83.414062 32.964844 82.546875 28.203125 80.8125 C 23.441406 79.078125 19.234375 76.578125 15.582031 73.308594 Z M 144.382812 81.914062 L 120.636719 81.914062 L 101.691406 37.382812 L 93.121094 81.914062 L 72.941406 81.914062 L 87.382812 6.859375 L 111.128906 6.859375 L 130.046875 51.542969 L 138.644531 6.859375 L 158.824219 6.859375 Z M 162.785156 81.914062 L 141.640625 81.914062 L 185.9375 6.859375 L 207.085938 6.859375 L 222.457031 81.914062 L 201.308594 81.914062 L 198.9375 68.554688 L 170.300781 68.554688 Z M 180.039062 51.292969 L 195.886719 51.292969 L 192.058594 29.875 Z M 219.710938 81.914062 L 234.152344 6.859375 L 262.023438 6.859375 C 268.582031 6.859375 274.046875 7.941406 278.417969 10.109375 C 282.832031 12.246094 285.945312 15.296875 287.765625 19.265625 C 289.621094 23.203125 290.027344 27.890625 288.984375 33.328125 C 287.9375 38.765625 285.722656 43.484375 282.335938 47.488281 C 278.988281 51.457031 274.730469 54.527344 269.558594 56.695312 C 264.382812 58.863281 258.554688 59.949219 252.066406 59.949219 L 244.117188 59.949219 L 239.890625 81.914062 Z M 247.4375 42.683594 L 253.144531 42.683594 C 257.492188 42.683594 260.957031 41.882812 263.542969 40.28125 C 266.160156 38.683594 267.761719 36.363281 268.347656 33.328125 C 268.917969 30.359375 268.199219 28.089844 266.191406 26.523438 C 264.222656 24.921875 261.0625 24.121094 256.714844 24.121094 L 251.007812 24.121094 Z M 282.8125 82.914062 C 280.367188 82.914062 278.539062 82.179688 277.328125 80.714844 C 276.113281 79.246094 275.738281 77.3125 276.203125 74.910156 C 276.664062 72.507812 277.78125 70.570312 279.558594 69.105469 C 281.335938 67.636719 283.449219 66.902344 285.894531 66.902344 C 288.339844 66.902344 290.167969 67.636719 291.382812 69.105469 C 292.59375 70.570312 292.96875 72.507812 292.507812 74.910156 C 292.046875 77.3125 290.925781 79.246094 289.148438 80.714844 C 287.371094 82.179688 285.261719 82.914062 282.8125 82.914062 Z M 9.792969 176.570312 L 23.617188 101.398438 L 51.492188 101.398438 C 58.046875 101.398438 63.519531 102.484375 67.910156 104.65625 C 72.339844 106.792969 75.480469 109.851562 77.332031 113.828125 C 79.222656 117.769531 79.667969 122.464844 78.667969 127.910156 C 77.664062 133.355469 75.488281 138.082031 72.136719 142.089844 C 68.824219 146.066406 64.589844 149.140625 59.433594 151.3125 C 54.277344 153.484375 48.457031 154.570312 41.96875 154.570312 L 34.019531 154.570312 L 29.972656 176.570312 Z M 37.199219 137.28125 L 42.90625 137.28125 C 47.253906 137.28125 50.710938 136.480469 53.285156 134.875 C 55.886719 133.273438 57.46875 130.949219 58.03125 127.910156 C 58.578125 124.9375 57.839844 122.664062 55.816406 121.09375 C 53.835938 119.488281 50.671875 118.6875 46.324219 118.6875 L 40.617188 118.6875 Z M 135.613281 176.570312 L 113.296875 176.570312 L 103.292969 151.714844 L 94.222656 151.714844 L 89.652344 176.570312 L 69.472656 176.570312 L 83.296875 101.398438 L 114.074219 101.398438 C 120.699219 101.398438 126.15625 102.382812 130.449219 104.355469 C 134.738281 106.324219 137.761719 109.199219 139.511719 112.976562 C 141.304688 116.714844 141.710938 121.242188 140.734375 126.554688 C 139.820312 131.535156 137.941406 135.828125 135.105469 139.4375 C 132.269531 143.042969 128.601562 145.882812 124.113281 147.957031 Z M 97.035156 136.429688 L 106.054688 136.429688 C 110.09375 136.429688 113.269531 135.695312 115.578125 134.222656 C 117.929688 132.71875 119.371094 130.5 119.914062 127.558594 C 120.453125 124.617188 119.824219 122.414062 118.023438 120.941406 C 116.261719 119.441406 113.359375 118.6875 109.316406 118.6875 L 100.296875 118.6875 Z M 169.539062 178.074219 C 163.695312 178.074219 158.472656 177.105469 153.871094 175.167969 C 149.304688 173.195312 145.511719 170.457031 142.488281 166.949219 C 139.503906 163.40625 137.449219 159.265625 136.316406 154.519531 C 135.183594 149.777344 135.132812 144.597656 136.167969 138.984375 C 137.199219 133.371094 139.152344 128.191406 142.03125 123.449219 C 144.898438 118.707031 148.476562 114.578125 152.765625 111.070312 C 157.085938 107.527344 161.886719 104.789062 167.167969 102.851562 C 172.488281 100.878906 178.089844 99.894531 183.964844 99.894531 C 189.808594 99.894531 195.011719 100.878906 199.574219 102.851562 C 204.144531 104.789062 207.90625 107.527344 210.855469 111.070312 C 213.84375 114.578125 215.90625 118.703125 217.035156 123.449219 C 218.167969 128.191406 218.21875 133.371094 217.1875 138.984375 C 216.152344 144.597656 214.199219 149.777344 211.324219 154.519531 C 208.445312 159.273438 204.867188 163.417969 200.578125 166.949219 C 196.332031 170.457031 191.566406 173.195312 186.277344 175.167969 C 180.996094 177.105469 175.414062 178.074219 169.539062 178.074219 Z M 172.71875 160.785156 C 175.539062 160.785156 178.253906 160.234375 180.871094 159.128906 C 183.484375 158.027344 185.855469 156.492188 187.984375 154.519531 C 190.152344 152.515625 191.972656 150.195312 193.445312 147.554688 C 194.949219 144.914062 195.984375 142.058594 196.550781 138.984375 C 197.113281 135.910156 197.128906 133.054688 196.597656 130.414062 C 196.097656 127.777344 195.128906 125.46875 193.691406 123.5 C 192.292969 121.496094 190.488281 119.941406 188.28125 118.839844 C 186.070312 117.734375 183.554688 117.183594 180.734375 117.183594 C 177.917969 117.183594 175.183594 117.734375 172.535156 118.839844 C 169.917969 119.941406 167.527344 121.496094 165.359375 123.5 C 163.195312 125.46875 161.363281 127.777344 159.855469 130.414062 C 158.386719 133.054688 157.367188 135.910156 156.804688 138.984375 C 156.238281 142.058594 156.207031 144.914062 156.707031 147.554688 C 157.238281 150.195312 158.222656 152.515625 159.652344 154.519531 C 161.089844 156.492188 162.914062 158.027344 165.125 159.128906 C 167.367188 160.234375 169.898438 160.785156 172.71875 160.785156 Z M 172.71875 160.785156 " fill-opacity="1" fill-rule="nonzero"/></g></svg>